<svg xmlns="http://www.w3.org/2000/svg" width="200" height="200" viewBox="0 0 200 200"><path fill="#C8C8C8" d="M155.403 142.091l-13.312 13.312c-1.762 1.762-4.209 2.74-6.656 2.74s-4.895-.979-6.656-2.74L100 126.625l-28.778 28.778c-1.762 1.762-4.209 2.74-6.656 2.74s-4.894-.979-6.656-2.74l-13.312-13.312c-1.762-1.762-2.741-4.209-2.741-6.656s.979-4.895 2.741-6.656L73.375 100 44.597 71.222c-1.762-1.762-2.741-4.209-2.741-6.656s.979-4.894 2.741-6.656l13.312-13.312c1.762-1.762 4.209-2.741 6.656-2.741s4.895.979 6.656 2.741L100 73.375l28.778-28.778c1.762-1.762 4.209-2.741 6.656-2.741s4.895.979 6.656 2.741l13.312 13.312c1.762 1.762 2.74 4.209 2.74 6.656s-.979 4.895-2.74 6.656L126.625 100l28.778 28.778c1.762 1.762 2.74 4.209 2.74 6.656s-.978 4.895-2.74 6.657z"/></svg>